<mxfile host="app.diagrams.net" agent="Mozilla/5.0 (Windows NT 10.0; Win64; x64; rv:136.0) Gecko/20100101 Firefox/136.0" version="26.2.4">
  <diagram name="Page-1" id="PCCILIwLmeU0ABxDsRsb">
    <mxGraphModel dx="1329" dy="725" grid="1" gridSize="10" guides="1" tooltips="1" connect="1" arrows="1" fold="1" page="1" pageScale="1" pageWidth="850" pageHeight="1100" math="0" shadow="0">
      <root>
        <mxCell id="0" />
        <mxCell id="1" parent="0" />
        <mxCell id="5-dz3fcNIv940CMwly3h-1" value="Navigation" style="rounded=0;whiteSpace=wrap;html=1;" vertex="1" parent="1">
          <mxGeometry x="20" y="50" width="540" height="30" as="geometry" />
        </mxCell>
        <mxCell id="5-dz3fcNIv940CMwly3h-2" value="Photo" style="rounded=0;whiteSpace=wrap;html=1;" vertex="1" parent="1">
          <mxGeometry x="30" y="120" width="250" height="170" as="geometry" />
        </mxCell>
        <mxCell id="5-dz3fcNIv940CMwly3h-3" value="Book a session" style="rounded=0;whiteSpace=wrap;html=1;" vertex="1" parent="1">
          <mxGeometry x="330" y="220" width="210" height="70" as="geometry" />
        </mxCell>
        <mxCell id="5-dz3fcNIv940CMwly3h-4" value="Learn more about JB" style="rounded=0;whiteSpace=wrap;html=1;" vertex="1" parent="1">
          <mxGeometry x="20" y="310" width="540" height="170" as="geometry" />
        </mxCell>
        <mxCell id="5-dz3fcNIv940CMwly3h-5" value="Reviews" style="rounded=0;whiteSpace=wrap;html=1;" vertex="1" parent="1">
          <mxGeometry x="20" y="490" width="540" height="170" as="geometry" />
        </mxCell>
        <mxCell id="5-dz3fcNIv940CMwly3h-6" value="Social Media Footer" style="rounded=0;whiteSpace=wrap;html=1;" vertex="1" parent="1">
          <mxGeometry x="20" y="670" width="540" height="60" as="geometry" />
        </mxCell>
        <mxCell id="5-dz3fcNIv940CMwly3h-10" value="FOOTER" style="rounded=0;whiteSpace=wrap;html=1;" vertex="1" parent="1">
          <mxGeometry x="20" y="730" width="540" height="40" as="geometry" />
        </mxCell>
      </root>
    </mxGraphModel>
  </diagram>
</mxfile>
